<?xml version="1.0" standalone="no"?><!DOCTYPE svg PUBLIC "-//W3C//DTD SVG 1.1//EN" "http://www.w3.org/Graphics/SVG/1.1/DTD/svg11.dtd"><svg class="icon" height="512" viewBox="0 0 1024 1024" version="1.1" xmlns="http://www.w3.org/2000/svg"><path d="M233.134165 542.758111H139.562965c-18.71424 0-31.189798-12.475558-31.189797-31.189797s12.475558-31.189798 31.189797-31.189798h93.5712c18.71424 0 31.189798 12.475558 31.189797 31.189798 0 18.712434-12.475558 31.189798-31.189797 31.189797z m654.992976 0H794.555942c-18.71424 0-31.189798-12.475558-31.189798-31.189797s12.477364-31.189798 31.189798-31.189798h93.571199c18.71424 0 31.189798 12.475558 31.189798 31.189798 0.001806 18.712434-12.475558 31.189798-31.189798 31.189797zM108.373168 511.566507V230.854716c0-18.71424 12.475558-31.189798 31.189797-31.189798s31.189798 12.475558 31.189798 31.189798v280.711791c0 18.71424-12.475558 31.189798-31.189798 31.189798C120.848726 542.758111 108.373168 530.280747 108.373168 511.566507z m748.564175 280.711792V511.566507c0-18.71424 12.477364-31.189798 31.189798-31.189797 18.71424 0 31.189798 12.475558 31.189798 31.189797v280.711792c0 18.71424-12.475558 31.189798-31.189798 31.189798-18.71424 0.001806-31.189798-12.475558-31.189798-31.189798zM888.127141 823.469903H794.555942c-18.71424 0-31.189798-12.477364-31.189798-31.189798s12.477364-31.189798 31.189798-31.189798h93.571199c18.71424 0 31.189798 12.475558 31.189798 31.189798s-12.475558 31.189798-31.189798 31.189798zM233.134165 262.04632H139.562965C120.848726 262.04632 108.373168 249.568956 108.373168 230.854716c0-18.71424 12.475558-31.189798 31.189797-31.189798h93.5712c18.71424 0 31.189798 12.475558 31.189797 31.189798s-12.475558 31.191604-31.189797 31.191604zM810.152647 733.016238l-71.737619 49.904038c-3.119341 3.119341-6.236876 6.236876-6.236875 9.356217 0 3.119341 3.117535 6.236876 6.236875 9.356217l71.737619 49.904037c9.358023 6.236876 15.596705 3.117535 15.596705-9.356217v-106.046757c-0.001806-6.23507-6.240488-9.354411-15.596705-3.117535M217.539266 171.594461l71.737618 49.904038c3.119341 3.119341 6.236876 6.236876 6.236876 9.356217 0 3.119341-3.117535 6.236876-6.236876 9.356217l-71.737618 49.904037c-9.356217 6.236876-15.596705 3.117535-15.596705-9.358023v-106.043145c0-6.238682 6.240488-9.358023 15.596705-3.119341m296.30669 215.211049c3.119341 0 6.236876 0 12.477364 3.119341l193.379275 99.808075c18.71424 9.356217 18.71424 34.309139 0 43.667162l-193.379275 99.808075c-3.119341 3.119341-6.238682 3.119341-12.477364 3.119341-6.236876 0-6.236876 0-12.477364-3.119341l-193.379274-99.808075a24.022719 24.022719 0 0 1-14.010844-21.833581 24.022719 24.022719 0 0 1 14.010844-21.833581l193.379274-99.808075c6.238682-3.119341 9.358023-3.119341 12.477364-3.119341z m155.950795 311.903396H357.895162c-34.309139 0-62.381402 28.070457-62.381402 62.379595v62.381402c0 34.309139 28.070457 62.379595 62.381402 62.379595h311.901589c34.309139 0 62.381402-28.070457 62.381402-62.379595v-62.381402c-0.001806-34.309139-28.072263-62.379595-62.381402-62.379595m-62.381402 124.760997c-18.71424 0-31.189798-12.477364-31.189797-31.189798s12.475558-31.189798 31.189797-31.189798 31.189798 12.475558 31.189798 31.189798-12.475558 31.189798-31.189798 31.189798M295.51376 199.664918v62.381402c0 34.309139 28.070457 62.379595 62.381402 62.379595h311.901589c34.309139 0 62.381402-28.070457 62.381402-62.379595v-62.381402c0-34.309139-28.070457-62.379595-62.381402-62.379595H357.895162c-34.310945 0-62.381402 28.070457-62.381402 62.379595m93.571199 31.189798c0-18.71424 12.475558-31.189798 31.189798-31.189798s31.189798 12.475558 31.189798 31.189798-12.475558 31.189798-31.189798 31.189797c-18.71424 0.001806-31.189798-12.475558-31.189798-31.189797" /></svg>